<svg viewBox="0 0 1366 780" height="780" width="1366" xmlns="http://www.w3.org/2000/svg" version="1.1"><g transform-origin="center" transform="scale(1, 1) rotate(0)"><rect x="0" y="0" width="1366" height="780" fill="#002438"></rect><linearGradient id="linear-gradient-r4"><stop offset="0%" stop-color="#00bcffff" stop-opacity="100%"></stop><stop offset="100%" stop-color="#00ff78ff" stop-opacity="100%"></stop></linearGradient><filter id="shadow-r4" x="0" width="100%" y="-20%" height="150%"><feDropShadow dx="0" dy="3" stdDeviation="10" flood-color="#00000061"></feDropShadow></filter><path d="M0 0 0,512.9521997724194 C 68.3,512.5073533991538 204.89999999999998,504.7206676881667 341.5,510.72796790609135 C 478.1,516.735268124016 546.4,543.9546342688985 683,542.9887008620426 C 819.6,542.0227674551867 887.9,518.5193585375976 1024.5,505.89830087181184 C 1161.1,493.27724320602607 1297.7,485.0863902008534 1366,479.88341253311376 L1366 780 L0 780Z" fill="none" stroke-linecap="round" filter="url(#shadow-r4)" stroke-width="1" style="transition: all 0.4s cubic-bezier(0.16, 1, 0.3, 1) 0s; fill: url(&quot;#linear-gradient-r4&quot;);"></path><path d="M0 0 0,626.6561321218497 C 68.3,634.5728264890984 204.9,667.4247908494808 341.5,666.2396039580926 C 478.1,665.0544170667044 546.4,636.2160603494104 683,620.730197664909 C 819.6,605.2443349804076 887.9,615.2007810758519 1024.5,588.8102905355859 C 1161.1,562.4197999953199 1297.7,508.7842540779803 1366,488.77774496357887 L1366 780 L0 780Z" fill="none" stroke-linecap="round" filter="url(#shadow-r4)" stroke-width="1" style="transition: all 0.4s cubic-bezier(0.16, 1, 0.3, 1) 0s; fill: url(&quot;#linear-gradient-r4&quot;);"></path><path d="M0 0 0,789.4905070541427 C 68.3,778.7048245349154 204.89999999999998,753.9127621612232 341.5,735.5620944580063 C 478.1,717.2114267547894 546.4,729.0097642142418 683,697.7371685380581 C 819.6,666.4645728618743 887.9000000000001,596.2382165515236 1024.5,579.1991160770878 C 1161.1,562.1600156026519 1297.7,605.8731561481208 1366,612.541666165879 L1366 780 L0 780Z" fill="none" stroke-linecap="round" filter="url(#shadow-r4)" stroke-width="1" style="transition: all 0.4s cubic-bezier(0.16, 1, 0.3, 1) 0s; fill: url(&quot;#linear-gradient-r4&quot;);"></path><path d="M0 0 0,850.3939912511036 C 68.30000000000001,841.6480023089889 204.9,842.8187473526317 341.5,806.6640465405303 C 478.1,770.5093457284289 546.4,689.3196380426548 683,669.6204871905967 C 819.6,649.9213363385386 887.9,698.1961638053785 1024.5,708.1682922802399 C 1161.1,718.1404207551013 1297.7,717.2185621079709 1366,719.4811295649037 L1366 780 L0 780Z" fill="none" stroke-linecap="round" filter="url(#shadow-r4)" stroke-width="1" style="transition: all 0.4s cubic-bezier(0.16, 1, 0.3, 1) 0s; fill: url(&quot;#linear-gradient-r4&quot;);"></path></g></svg>